<svg xmlns="http://www.w3.org/2000/svg"
 xmlns:xlink="http://www.w3.org/1999/xlink"
 width="29px" height="29px"  viewBox="0 0 29 29">
<path fill-rule="evenodd"  fill="#000000"
 d="M14.918457,8.53479 C14.918457,9.421143 15.588135,10.022217 16.414185,10.022217 C17.240234,10.022217 17.909912,9.421143 17.909912,8.53479 C17.909912,7.6481934 17.240234,7.046997 16.414185,7.046997 C15.588135,7.046997 14.918457,7.6481934 14.918457,8.53479 ZM11.592163,13.699219 C11.592163,13.875122 11.560303,14.311768 11.595947,14.574951 C11.595947,14.574951 12.901245,13.00415 12.901245,13.00415 C13.171387,12.708374 13.483643,12.501343 13.643433,12.557251 C13.803101,12.613525 13.890503,12.800415 13.838501,12.97583 C13.838501,12.97583 11.678345,20.130371 11.678345,20.130371 C11.429565,20.966797 11.9001465,21.788574 13.046387,21.974976 C14.725708,21.974976 15.723877,20.839355 16.704956,19.366821 C16.704956,19.19104 16.763672,18.72754 16.727905,18.464844 C16.727905,18.464844 15.4227295,20.035278 15.4227295,20.035278 C15.152344,20.33142 14.816284,20.53833 14.656494,20.482056 C14.508789,20.430176 14.422974,20.266113 14.452148,20.103271 C14.452148,20.103271 16.627075,12.9140625 16.627075,12.9140625 C16.807983,12.001343 16.317017,11.170898 15.277466,11.064331 C14.18457,11.064331 12.573364,12.226807 11.592163,13.699219 ZM14.666626,1.5836182 C21.846313,1.5836182 27.666748,7.4034424 27.666748,14.583252 C27.666748,21.76294 21.846313,27.583618 14.666626,27.583618 C7.4869385,27.583618 1.666626,21.76294 1.666626,14.583252 C1.666626,7.4034424 7.4869385,1.5836182 14.666626,1.5836182 Z"/>
</svg>