<svg xmlns="http://www.w3.org/2000/svg"
 xmlns:xlink="http://www.w3.org/1999/xlink"
 width="22px" height="28px"  viewBox="0 0 22 28">
<path fill-rule="evenodd"  fill="#000000"
 d="M20.361206,7.8085938 C20.361206,7.8085938 16.861206,13.87085 16.861206,13.87085 C16.308838,14.827515 15.085815,15.154785 14.12915,14.602905 C14.12915,14.602905 13.263184,14.102905 13.263184,14.102905 C13.263184,14.102905 14.263184,12.37085 14.263184,12.37085 C14.263184,12.37085 14.263184,12.37085 14.263184,12.37085 C14.741455,12.646606 15.353027,12.48291 15.62915,12.004517 C15.62915,12.004517 18.129028,7.6744385 18.129028,7.6744385 C18.405273,7.196167 18.241455,6.5843506 17.763062,6.3085938 C17.763062,6.3085938 14.299072,4.3085938 14.299072,4.3085938 C13.820679,4.0324707 13.209106,4.196167 12.933105,4.6744385 C12.933105,4.6744385 10.432861,9.004517 10.432861,9.004517 C10.15686,9.48291 10.320679,10.094238 10.799072,10.37085 C10.799072,10.37085 9.79895,12.102905 9.79895,12.102905 C9.79895,12.102905 8.932983,11.602905 8.932983,11.602905 C7.9763184,11.050537 7.6488037,9.827515 8.200928,8.87085 C8.200928,8.87085 11.70105,2.8085938 11.70105,2.8085938 C12.253296,1.8519287 13.47644,1.5241699 14.432983,2.076538 C14.432983,2.076538 19.62915,5.076172 19.62915,5.076172 C20.585571,5.6289062 20.913452,6.8519287 20.361206,7.8085938 ZM8.531006,18.299194 C8.052734,18.022583 7.888916,17.411255 8.165039,16.932983 C8.165039,16.932983 12.165039,10.004517 12.165039,10.004517 C12.441162,9.526611 13.052734,9.362549 13.531128,9.638672 C14.009277,9.914795 14.173218,10.526611 13.897095,11.004517 C13.897095,11.004517 9.897217,17.932983 9.897217,17.932983 C9.621094,18.411255 9.009399,18.574951 8.531006,18.299194 ZM7.79895,15.56665 C7.79895,15.56665 7.79895,15.56665 7.79895,15.56665 C7.320801,15.290894 6.7091064,15.45459 6.4329834,15.932983 C6.4329834,15.932983 3.9329834,20.26294 3.9329834,20.26294 C3.6568604,20.741333 3.8208008,21.352661 4.2990723,21.629272 C4.2990723,21.629272 7.7631836,23.629272 7.7631836,23.629272 C8.241455,23.90503 8.853027,23.741333 9.12915,23.26294 C9.12915,23.26294 11.62915,18.932983 11.62915,18.932983 C11.905273,18.45459 11.741455,17.842896 11.263184,17.56665 C11.263184,17.56665 11.263184,17.56665 11.263184,17.56665 C11.263184,17.56665 12.263184,15.834595 12.263184,15.834595 C12.263184,15.834595 13.12915,16.334595 13.12915,16.334595 C14.085815,16.886963 14.413452,18.109985 13.861328,19.06665 C13.861328,19.06665 10.361206,25.128784 10.361206,25.128784 C9.80896,26.085571 8.585693,26.413208 7.6291504,25.860962 C7.6291504,25.860962 2.4329834,22.860962 2.4329834,22.860962 C1.4764404,22.30896 1.1486816,21.085571 1.7009277,20.129272 C1.7009277,20.129272 5.2009277,14.06665 5.2009277,14.06665 C5.753296,13.110352 6.9763184,12.782715 7.9329834,13.334595 C7.9329834,13.334595 8.79895,13.834595 8.79895,13.834595 C8.79895,13.834595 7.79895,15.56665 7.79895,15.56665 Z"/>
</svg>