<svg xmlns="http://www.w3.org/2000/svg"
 xmlns:xlink="http://www.w3.org/1999/xlink"
 width="33px" height="33px"  viewBox="0 0 33 33">
<path fill-rule="evenodd"  fill="#000000"
 d="M30.591797,29.572632 C30.591797,29.572632 29.882568,30.281982 29.882568,30.281982 C29.098999,31.065552 27.828613,31.065552 27.045166,30.281982 C27.045166,30.281982 21.370483,24.6073 21.370483,24.6073 C20.712769,23.949463 20.640991,22.964111 21.087402,22.196167 C21.087402,22.196167 17.985352,19.093872 17.985352,19.093872 C16.316895,20.33191 14.2578125,21.073486 12.02063,21.073486 C6.4804688,21.073486 1.9891357,16.582153 1.9891357,11.041992 C1.9891357,5.501831 6.4804688,1.010498 12.02063,1.010498 C17.560913,1.010498 22.052124,5.501831 22.052124,11.041992 C22.052124,13.621094 21.070435,15.96521 19.471191,17.742188 C19.471191,17.742188 22.506104,20.777222 22.506104,20.777222 C23.273926,20.330688 24.2594,20.40271 24.917236,21.060425 C24.917236,21.060425 30.591797,26.735107 30.591797,26.735107 C31.375366,27.518799 31.375366,28.789062 30.591797,29.572632 ZM19.523315,10.999878 C19.523315,6.8448486 16.15503,3.4766846 11.999756,3.4766846 C10.842529,3.4766846 9.759155,3.7591553 8.779541,4.226074 C9.303223,4.763794 10.093018,5.567505 10.134766,5.567505 C9.319824,5.567505 6.651001,8.236328 6.651001,9.114014 C6.651001,9.071899 5.801758,8.265869 5.2458496,7.7425537 C4.767456,8.731934 4.4761963,9.827637 4.4761963,10.999878 C4.4761963,15.155273 7.8446045,18.523926 11.999756,18.523926 C16.15503,18.523926 19.523315,15.155273 19.523315,10.999878 Z"/>
</svg>